# xmcd
#
# Track frame offsets: 
#        150
#        16853
#        39109
#        59747
#        82526
#        104792
#        125986
#        150359
#        168676
#        186349
#        204673
#        221496
#
# Disc length: 3210 seconds
#
# Revision: 2
# Processed by: cddbd v1.5.2PL0 Copyright (c) Steve Scherf et al.
# Submitted via: ExactAudioCopy v0.99pb4
#
DISCID=a40c880c
DTITLE=Yuji Toriyama - Toriyama
DYEAR=2007
DGENRE=Instrumental
TTITLE0=The Song of Life (The World Heritage 10th Anniversary version)
TTITLE1=Seven Miles Bridge
TTITLE2=Overnight Journey
TTITLE3=What are you doing the rest of your life
TTITLE4=Days
TTITLE5=Embrace you
TTITLE6=Wind of Phantom
TTITLE7=Thousands of eyes (for Fantasista Veriosn)
TTITLE8=Beside you
TTITLE9=Going home
TTITLE10=The Song of Life (Scat Verison feat.Lyrico)
TTITLE11=Majestic Shadow
EXTD=
EXTT0=
EXTT1=
EXTT2=
EXTT3=
EXTT4=
EXTT5=
EXTT6=
EXTT7=
EXTT8=
EXTT9=
EXTT10=
EXTT11=
PLAYORDER=
